<?xml version="1.0" encoding="utf-8"?>

<svg width="20px" height="14px" viewBox="0 0 20 14" version="1.1" xmlns="http://www.w3.org/2000/svg" xmlns:xlink="http://www.w3.org/1999/xlink">
		<!-- Generator: Sketch 46.2 (44496) - http://www.bohemiancoding.com/sketch -->
		<desc>Created with Sketch.</desc>
		<defs></defs>
		<g id="Page-1" stroke="none" stroke-width="1" fill="none" fill-rule="evenodd">
				<g id="Active-Sections---Open" transform="translate(-280.000000, -163.000000)" fill="#8293B9">
						<g id="Rectangle-2-+-title-+-icon_configure-copy-7-+-Oval-70-+-ic_filter_list_black_24px-+-Clipped-+-ic_playlist_add_black_24px" transform="translate(260.000000, 139.000000)">
								<g id="title-+-icon_configure-copy-7-+-Oval-70-+-ic_filter_list_black_24px-+-Clipped-+-ic_playlist_add_black_24px">
										<g id="ic_playlist_add_black_24px" transform="translate(18.000000, 18.000000)">
												<path d="M14,10 L2,10 L2,12 L14,12 L14,10 L14,10 Z M14,6 L2,6 L2,8 L14,8 L14,6 L14,6 Z M18,14 L18,10 L16,10 L16,14 L12,14 L12,16 L16,16 L16,20 L18,20 L18,16 L22,16 L22,14 L18,14 L18,14 Z M2,16 L10,16 L10,14 L2,14 L2,16 L2,16 Z" id="Shape"></path>
										</g>
								</g>
						</g>
				</g>
		</g>
</svg>