<?xml version="1.0" encoding="utf-8"?>
<!-- Generator: Adobe Illustrator 20.1.0, SVG Export Plug-In . SVG Version: 6.00 Build 0)  -->
<svg version="1.1" id="Layer_1" xmlns="http://www.w3.org/2000/svg" xmlns:xlink="http://www.w3.org/1999/xlink" x="0px" y="0px"
	 viewBox="0 0 113 36" style="enable-background:new 0 0 113 36;" xml:space="preserve">
<style type="text/css">
	.st0{fill:#FFFFFF;}
</style>
<title>practice logo color</title>
<desc>Created with Sketch.</desc>
<g>
	<g id="word-mark" transform="translate(128.000000, 33.029999)">
		<path id="Fill-1" class="st0" d="M-89.8-19.2c-1.2,0-2.1,0.4-2.9,1.2s-1.2,1.8-1.2,3c0,0.8,0.2,1.5,0.5,2.1s0.8,1.1,1.5,1.5
			c0.6,0.4,1.3,0.5,2.1,0.5s1.4-0.2,2-0.5c0.6-0.4,1.1-0.9,1.5-1.5s0.6-1.4,0.6-2.1c0-0.7-0.2-1.4-0.5-2.1c-0.4-0.6-0.9-1.2-1.5-1.5
			C-88.4-19-89.1-19.2-89.8-19.2 M-94.6-20.2h0.3c0.3,0,0.5,0.2,0.5,0.5v1.4c0.5-0.7,1.1-1.3,1.8-1.6c0.7-0.4,1.4-0.5,2.3-0.5
			c1.5,0,2.7,0.5,3.8,1.6c1,1.1,1.6,2.3,1.6,3.8c0,1.5-0.5,2.8-1.5,3.9s-2.3,1.6-3.7,1.6c-0.8,0-1.6-0.2-2.3-0.5
			c-0.7-0.3-1.3-0.8-1.9-1.5v5c0,0.3-0.2,0.5-0.5,0.5h-0.3c-0.3,0-0.5-0.2-0.5-0.5v-13C-95.1-19.9-94.9-20.2-94.6-20.2"/>
		<path id="Fill-3" class="st0" d="M-81.2-20.2h0.4c0.3,0,0.5,0.2,0.5,0.5v1c0.4-0.6,0.8-1,1.3-1.3c0.4-0.3,0.9-0.4,1.4-0.4
			c0.2,0,0.4,0,0.6,0.1c0.3,0.1,0.4,0.5,0.3,0.7l-0.2,0.3c-0.1,0.2-0.3,0.3-0.5,0.2c-0.1,0-0.3-0.1-0.4-0.1c-0.4,0-0.9,0.2-1.3,0.5
			c-0.4,0.4-0.7,0.9-0.9,1.7c-0.2,0.6-0.3,1.8-0.3,3.5v3c0,0.3-0.2,0.5-0.5,0.5h-0.4c-0.3,0-0.5-0.2-0.5-0.5v-9.3
			C-81.7-19.9-81.5-20.2-81.2-20.2"/>
		<path id="Fill-5" class="st0" d="M-70.6-19.2c-0.7,0-1.4,0.2-2,0.5c-0.6,0.4-1.1,0.9-1.5,1.5c-0.4,0.6-0.5,1.3-0.5,2.1
			c0,0.7,0.2,1.4,0.6,2.1c0.4,0.7,0.9,1.2,1.5,1.5c0.6,0.4,1.3,0.5,2,0.5s1.4-0.2,2.1-0.5c0.6-0.4,1.2-0.8,1.5-1.5
			c0.4-0.6,0.5-1.3,0.5-2.1c0-1.2-0.4-2.2-1.2-3C-68.5-18.8-69.5-19.2-70.6-19.2 M-65.3-19.7v9.3c0,0.3-0.2,0.5-0.5,0.5h-0.3
			c-0.3,0-0.5-0.2-0.5-0.5v-1.3c-0.6,0.7-1.2,1.2-1.9,1.5c-0.7,0.3-1.4,0.5-2.3,0.5c-1.5,0-2.7-0.5-3.7-1.6S-76-13.5-76-15
			c0-1.4,0.5-2.8,1.5-3.8c1.1-1.1,2.3-1.6,3.8-1.6c0.8,0,1.6,0.2,2.3,0.5c0.7,0.4,1.3,0.9,1.8,1.6v-1.4c0-0.3,0.2-0.5,0.5-0.5h0.3
			C-65.6-20.2-65.3-19.9-65.3-19.7"/>
		<path id="Fill-7" class="st0" d="M-53-17.7l-0.2,0.2c-0.2,0.1-0.5,0.1-0.6-0.1c-0.9-1-2-1.5-3.4-1.5c-1.3,0-2.3,0.4-3.1,1.2
			c-0.8,0.8-1.2,1.8-1.2,2.9c0,0.7,0.2,1.4,0.6,2.1c0.4,0.7,0.9,1.2,1.6,1.5c0.7,0.4,1.4,0.5,2.2,0.5c1.4,0,2.5-0.5,3.4-1.5
			c0.2-0.2,0.4-0.2,0.6-0.1l0.2,0.2c0.3,0.2,0.3,0.5,0.1,0.7c-0.4,0.5-1,1-1.6,1.3c-0.8,0.4-1.8,0.6-2.8,0.6c-1.6,0-3-0.5-4-1.5
			c-1.1-1-1.6-2.3-1.6-3.8c0-1,0.3-1.9,0.7-2.8c0.5-0.8,1.2-1.5,2.1-2c0.9-0.5,1.9-0.7,2.9-0.7c0.7,0,1.3,0.1,2,0.3
			c0.6,0.2,1.2,0.5,1.6,0.8c0.3,0.2,0.6,0.5,0.8,0.8C-52.7-18.3-52.7-17.9-53-17.7"/>
		<path id="Fill-16" class="st0" d="M-45.9-10.4c0,0.3-0.1,0.5-0.4,0.5c-2.2,0-2.4-1.5-2.4-2.2V-19h-1.3c-0.3,0-0.5-0.2-0.5-0.5
			v-0.2c0-0.3,0.2-0.5,0.5-0.5h1.3v-3.3c0-0.3,0.2-0.5,0.5-0.5h0.3c0.3,0,0.5,0.2,0.5,0.5v3.3h1.6c0.3,0,0.5,0.2,0.5,0.5v0.2
			c0,0.3-0.2,0.5-0.5,0.5h-1.6v6.4c0,0.6,0.2,1.2,0.8,1.3c0.4,0.1,0.6,0.2,0.6,0.4C-45.9-10.7-45.9-10.6-45.9-10.4"/>
		<path id="Fill-13" class="st0" d="M-42.2-20.2h0.3c0.3,0,0.5,0.2,0.5,0.5v9.3c0,0.3-0.2,0.5-0.5,0.5h-0.3c-0.3,0-0.5-0.2-0.5-0.5
			v-9.3C-42.7-19.9-42.5-20.2-42.2-20.2 M-42.1-24.4c0.3,0,0.5,0.1,0.7,0.3c0.2,0.2,0.3,0.5,0.3,0.8c0,0.3-0.1,0.5-0.3,0.7
			s-0.5,0.3-0.8,0.3c-0.3,0-0.5-0.1-0.8-0.3c-0.2-0.2-0.3-0.5-0.3-0.8s0.1-0.6,0.3-0.8C-42.6-24.3-42.3-24.4-42.1-24.4"/>
		<path id="Fill-9" class="st0" d="M-28.8-17.7l-0.2,0.2c-0.2,0.1-0.5,0.1-0.6-0.1c-0.9-1-2-1.5-3.4-1.5c-1.3,0-2.3,0.4-3.1,1.2
			c-0.8,0.8-1.2,1.8-1.2,2.9c0,0.7,0.2,1.4,0.6,2.1s0.9,1.2,1.6,1.5c0.7,0.4,1.4,0.5,2.2,0.5c1.4,0,2.5-0.5,3.4-1.5
			c0.2-0.2,0.4-0.2,0.6-0.1l0.2,0.2c0.3,0.2,0.3,0.5,0.1,0.7c-0.4,0.5-1,1-1.6,1.3c-0.8,0.4-1.8,0.6-2.8,0.6c-1.6,0-3-0.5-4-1.5
			c-1.1-1-1.6-2.3-1.6-3.8c0-1,0.3-1.9,0.7-2.8c0.5-0.8,1.2-1.5,2.1-2c0.9-0.5,1.9-0.7,2.9-0.7c0.7,0,1.3,0.1,2,0.3
			c0.6,0.2,1.2,0.5,1.6,0.8c0.3,0.2,0.6,0.5,0.8,0.8C-28.5-18.3-28.5-17.9-28.8-17.7"/>
		<path id="Fill-11" class="st0" d="M-17.2-16.1c-0.2-0.7-0.4-1.3-0.8-1.7c-0.4-0.4-0.8-0.8-1.4-1.1c-0.5-0.2-1.1-0.4-1.7-0.4
			c-1,0-1.9,0.3-2.6,1c-0.5,0.5-0.9,1.2-1.2,2.1C-24.9-16.1-17.2-16.1-17.2-16.1z M-16.8-13.1l0.3,0.1c0.3,0.1,0.3,0.4,0.2,0.7
			c-0.3,0.5-0.6,1-1,1.3c-0.5,0.4-1,0.8-1.6,1c-0.6,0.2-1.3,0.3-2,0.3c-1.7,0-3-0.5-3.9-1.6c-1-1.1-1.4-2.3-1.4-3.7
			c0-1.3,0.4-2.5,1.2-3.5c1-1.3,2.4-2,4.1-2c1.7,0,3.2,0.7,4.2,2c0.6,0.8,1,1.8,1.1,3c0,0.3-0.2,0.5-0.5,0.5H-25
			c0,1.2,0.4,2.2,1.2,2.9c0.7,0.8,1.6,1.2,2.7,1.2c0.5,0,1-0.1,1.5-0.3s0.9-0.4,1.3-0.7c0.3-0.2,0.6-0.6,0.9-1.1
			C-17.3-13.1-17-13.2-16.8-13.1L-16.8-13.1z"/>
	</g>
	<g id="icon">
		<g id="Group" transform="translate(51.000000, 0.000000)">
			<path id="SE-pie-piece" class="st0" d="M-37.9,23.1c5.5-0.5,9.7-5,10.3-10.3h-10.3V23.1z"/>
			<path id="NE-pie-piece" class="st0" d="M-37.9,10.3h10.3C-28.1,4.9-32.4,0.5-37.9,0V10.3z"/>
		</g>
		<g id="Group-2">
			<path id="SW-pie-piece" class="st0" d="M10.5,25.7H0.3c0.5,5.4,4.9,9.7,10.3,10.3V25.7z"/>
			<path id="circle" class="st0" d="M10.8,18c0,3-2.4,5.4-5.4,5.4S0,21,0,18s2.4-5.4,5.4-5.4S10.8,15,10.8,18"/>
			<path id="NW-pie-piece" class="st0" d="M10.5,0C5.1,0.5,0.8,4.9,0.3,10.3h10.3V0z"/>
		</g>
	</g>
</g>
</svg>
